<svg id="Capa_1" enable-background="new 0 0 511.999 511.999" height="512" viewBox="0 0 511.999 511.999" width="512" xmlns="http://www.w3.org/2000/svg"><g><g><path d="m322.189 380.27h-132.38c-5.62 41.79-8.81 81.52-8.81 91.73 0 25.23 19.47 29.43 47.04 30h55.96c27.55-.57 47-4.78 47-30 0-10.21-3.19-49.94-8.81-91.73z" fill="#ffda8f"/><path d="m295.409 226.12-67.34-39.47c-5.71 16.39-11.07 37.99-15.99 61.44-5.37 25.58-10.2 53.34-14.36 78.9h116.56c-5.3-32.55-11.68-72.02-18.87-100.87z" fill="#ffda8f"/><path d="m390.909 91.03c-21.32-7.67-40.75-19.9-55.15-37.4-21.21-25.76-49.14-43.63-79.76-43.63s-58.55 17.87-79.76 43.63c-14.4 17.5-33.83 29.73-55.15 37.4-45.91 16.51-75.09 41.28-75.09 68.97 0 35.55 48.09 66.28 117.91 80.9.05.02.1.03.16.04 14.9 3.11 30.79 5.49 47.41 7.03l.6.12c4.92-23.45 10.28-45.05 15.99-61.44l6.6 5.61c18.03 15.34 38.8 26.81 60.74 33.86 40.34 12.98 84.66 11.03 123.22-9.18 29.61-15.51 47.37-35.34 47.37-56.94 0-27.69-29.18-52.46-75.09-68.97z" fill="#ff7b79"/><path d="m255.999 316c-65.516 0-120 43.023-120 60 0 16.57 53.703 0 120 0 66.354 0 120 16.572 120 0 0-16.699-53.921-60-120-60z" fill="#ff7b79"/><path d="m200.239 162.97c-3.55-3.02-7.47-5.8-11.74-8.26-28.7-16.57-62.04-12.55-74.46 8.97-12.43 21.53.76 52.41 29.46 68.97 6.66 3.85 13.57 6.59 20.41 8.25.05.02.1.03.16.04 14.9 3.11 30.79 5.49 47.41 7.03l.6.12c4.92-23.45 10.28-45.05 15.99-61.44z" fill="#eefaff"/></g><g><circle cx="375.999" cy="130" r="10"/><circle cx="315.999" cy="160" r="10"/><circle cx="285.999" cy="70" r="10"/><circle cx="255.999" cy="130" r="10"/><circle cx="225.999" cy="70" r="10"/><circle cx="416" cy="218" r="10"/><path d="m394.294 81.621c-21.257-7.647-38.354-19.203-50.815-34.348-25.101-30.484-56.168-47.273-87.48-47.273s-62.379 16.789-87.481 47.275c-12.46 15.143-29.557 26.698-50.813 34.345-37.03 13.317-81.706 39.003-81.706 78.38 0 51.816 75.083 80.055 125.86 90.688.009.002.017.002.026.004.048.011.093.027.141.037 12.207 2.548 24.971 4.585 38.058 6.098-3.616 18.092-7.348 38.843-11.322 62.978-21.402 8.929-62.763 33.34-62.763 56.195 0 4.569 1.826 8.727 5.142 11.707 7.957 7.151 22.27 6.421 47.126 3.844-4.541 36.475-7.267 70.378-7.267 80.449 0 38.822 38.386 39.616 56.833 39.998.069.001 56.305.001 56.374 0 18.435-.382 56.793-1.176 56.793-39.998 0-10.071-2.726-43.974-7.267-80.449 20.001 2.075 38.376 4.019 47.126-3.844 3.315-2.98 5.142-7.138 5.142-11.707 0-22.844-41.334-47.254-62.758-56.192-4.11-25.228-8.976-54.725-14.349-79.707 21.974 4.844 44.511 5.533 66.044 1.919 5.447-.915 9.121-6.071 8.207-11.518s-6.078-9.115-11.518-8.207c-23.842 4.003-49.137 2.033-73.156-5.695-20.771-6.674-40.592-17.725-57.323-31.959-32.728-27.344-36.045-31.907-47.646-38.591-15.742-9.089-33.335-13.019-49.531-11.066-35.608 4.29-54.006 35.758-39.818 68.974 1.368 3.204 3.001 6.329 4.876 9.351-33.064-14.727-53.03-33.977-53.03-53.309 0-21.876 25.598-44.141 68.475-59.561 24.692-8.883 44.707-22.494 59.485-40.453 21.232-25.785 46.816-39.986 72.04-39.986s50.809 14.201 72.038 39.984c14.78 17.961 34.795 31.572 59.488 40.456 42.876 15.419 68.474 37.684 68.474 59.56 0 8.433-3.688 16.896-10.962 25.158-3.65 4.146-3.249 10.464.896 14.113 4.146 3.65 10.464 3.249 14.113-.896 10.585-12.021 15.952-24.933 15.952-38.375.001-39.375-44.671-65.062-81.704-78.379zm-110.399 410.379h-55.751c-31.776-.67-37.145-6.716-37.145-20 0-8.367 2.639-43.152 7.697-82.601 17.877-1.818 36.907-3.399 57.303-3.399s39.428 1.582 57.303 3.4c5.058 39.448 7.697 74.234 7.697 82.6 0 13.284-5.363 19.33-37.104 20zm80.854-118.796c-15.8 1.608-61.98-7.204-108.75-7.204-51.608 0-90.762 9.023-108.75 7.204 13.014-21.576 61.608-47.204 108.75-47.204 47.147 0 95.739 25.631 108.75 47.204zm-77.765-139.387c5.432 23.065 10.461 52.314 14.772 78.537-15.131-4.217-30.46-6.354-45.757-6.354-15.284 0-30.601 2.134-45.716 6.343 4.063-24.068 7.875-44.536 11.583-62.199 3.807-18.145 7.569-33.617 11.235-46.243 16.287 12.953 34.365 22.993 53.883 29.916zm-140.623-78.978c11.927-1.438 25.12 1.592 37.146 8.536 8.901 5.128 11.742 8.846 32.945 26.516-4.044 12.656-8.086 28.251-12.256 47.275-13.068-1.456-25.795-3.457-37.929-5.984-18.182-4.413-36.27-17.625-43.724-35.082-8.879-20.783 1.341-38.551 23.818-41.261z"/></g></g></svg>